<svg width="512" height="512" viewBox="0 0 512 512" fill="none" xmlns="http://www.w3.org/2000/svg">
<path d="M139.5 317L175 268.5L196 274.5L323.5 335L366.5 380.5L369 435L344 468C344 468 334.69 476.204 330.5 478C316.5 484 316.091 486 301.5 486H264C253.008 486 196.462 486.874 186.5 483C177.5 479.5 162.716 466.802 151.5 459C139.984 450.99 140.497 432.823 131 422.5C120.292 410.861 125.112 414.366 118.5 400C115.27 392.983 128.5 353 128.5 353L142.5 366L139.5 317Z" fill="white"/>
<path d="M123.581 439.045C132.775 449.184 139.381 454.679 150.581 462.545C158.889 468.381 174.081 476.045 174.081 476.045C174.081 476.045 161.713 464.755 156.081 457.045C150.805 449.825 148.466 446.338 144.081 438.545C139.712 430.784 137.976 426.473 134.679 418.29L134.581 418.045C131.973 411.573 130.672 408.839 129.081 402.045C127.638 395.888 126.442 390.311 125.581 384.045C124.67 377.423 125.081 368.045 124.581 367.045C123.948 365.78 115.297 357.883 110.581 351.545C106.377 345.897 104.948 343.228 101.581 337.045C98.3178 331.056 96.8621 328.473 94.5805 322.045C91.6813 313.878 88.2234 298.045 88.0805 299.045C86.778 308.163 86.4578 313.342 86.0805 322.545C85.7286 331.13 86.6163 336.466 87.0805 345.045C87.4941 352.689 87.78 356.501 89.0805 364.045C90.7621 373.8 91.4477 379.155 94.5805 388.545C98.4025 400.001 100.922 407.157 107.081 417.545C112.617 426.885 116.287 431.002 123.581 439.045Z" fill="url(#paint0_linear_5_8)"/>
<path d="M123.581 439.045C132.775 449.184 139.381 454.679 150.581 462.545C158.889 468.381 174.081 476.045 174.081 476.045C174.081 476.045 160.016 465.976 153 459.5C146.5 453.5 140.569 447.588 135 440.5C129.5 433.5 128.081 432.5 123.581 424.5C120.487 419 119 414 115.081 404C112.773 398.112 115.081 404 108.5 384C102.549 365.914 102 338 101.5 337C98.2373 331.011 96.8621 328.473 94.5805 322.045C91.6813 313.878 88.2234 298.045 88.0805 299.045C86.778 308.163 86.4578 313.342 86.0805 322.545C85.7286 331.13 86.6163 336.466 87.0805 345.045C87.4941 352.689 87.78 356.501 89.0805 364.045C90.7621 373.8 91.4477 379.155 94.5805 388.545C98.4025 400.001 100.922 407.157 107.081 417.545C112.617 426.885 116.287 431.002 123.581 439.045Z" fill="url(#paint1_linear_5_8)"/>
<path d="M371.5 278C371.561 269.778 370 257 370 257C370 257 379.566 268.077 384.5 276C388.793 282.894 390.847 287.015 394 294.5C397.74 303.378 399.279 308.626 401.5 318C403.913 328.184 404.944 334.049 405.5 344.5C406.102 355.824 406.217 362.378 404 373.5C402.442 381.314 400.689 385.5 398 393C394.928 401.568 393.234 406.443 389 414.5C384.213 423.609 374.5 436.5 374.5 436.5L355.5 459C355.5 459 357.117 455.38 358 453C361.33 444.024 361.675 438.482 363 429C365.756 409.275 368.103 397.252 363 378C358.073 359.411 339 335 339 335C339 335 346.862 330.146 351 326C355.746 321.244 361 312 361 312C361 312 365.853 302.985 368 296.5C370.339 289.434 371.444 285.443 371.5 278Z" fill="url(#paint2_linear_5_8)"/>
<path d="M146.395 367C146.986 374.876 149.395 387 149.395 387C149.395 387 141.119 372.376 136.895 362.5C132.427 352.053 130.053 346.047 127.395 335C121.818 311.827 122.011 297.593 125.395 274C128.411 252.968 141.395 222 141.395 222L177.5 211L200 243.5C200 243.5 179.678 269.871 176.395 274C174.231 276.721 172.895 278.156 170.895 281C167.523 285.794 166.174 288.84 163.395 294C160.496 299.382 158.88 302.415 156.395 308C153.255 315.058 151.355 319.028 149.395 326.5C147.391 334.139 146.986 338.624 146.395 346.5C145.795 354.483 145.795 359.017 146.395 367Z" fill="url(#paint3_linear_5_8)"/>
<path d="M134.714 368.5C139.566 376.292 149.214 387 149.214 387C149.214 387 143.015 374.471 140.214 366C137.999 359.3 137.001 355.438 135.714 348.5C134.53 342.118 134.051 338.482 133.714 332C133.248 323.022 134.039 317.965 134.714 309C135.289 301.366 135.574 297.07 136.714 289.5C138.231 279.426 139.425 273.798 142.214 264C145.462 252.592 146.431 245.56 152.714 235.5C159.956 223.906 177.714 211 177.714 211C177.714 211 175.023 206.863 173.714 204C170.957 197.97 170.188 194.113 169.714 187.5C169.252 181.046 169.813 177.317 171.214 171C172.942 163.212 178.714 152 178.714 152C178.714 152 168.423 159.971 162.714 166C155.518 173.6 152.43 178.732 146.714 187.5C140.365 197.239 137.145 202.972 132.214 213.5C126.815 225.028 123.949 231.688 120.714 244C118.144 253.78 117.42 258.96 116.214 269C114.49 283.358 114.704 292.118 116.214 306.5C117.362 317.432 117.589 323.461 120.714 334C124.848 347.94 127.029 356.157 134.714 368.5Z" fill="url(#paint4_linear_5_8)"/>
<path d="M257.453 42.5C255.403 35.1842 248.953 25 248.953 25C248.953 25 256.995 29.2972 261.453 33C266.344 37.0616 268.379 40.1198 272.453 45C278.185 51.8658 281.394 55.8059 285.953 63.5C291.614 73.0512 294.593 78.7723 297.453 89.5C299.439 96.9447 301.297 101.323 301.953 109C302.786 118.728 302.293 124.412 300.453 134C299.011 141.521 296.285 145.206 293.953 152.5C290.32 163.87 287.237 170.133 285.953 182L285.91 182.403C285.054 190.313 284.54 195.06 285.953 203C287.144 209.687 288.304 213.482 291.453 219.5C294.243 224.83 300.453 232 300.453 232C300.453 232 308.196 223.353 311.953 217C316.365 209.54 318.184 204.864 320.453 196.5C322.572 188.691 323.243 184.088 323.453 176C323.642 168.754 321.953 157.5 321.953 157.5C321.953 157.5 331.36 168.718 336.453 176.5C340.473 182.641 342.48 186.09 344.953 193C347.367 199.742 348.48 203.405 349.453 210.5C350.81 220.383 350.896 227.129 349.453 237C348.453 243.847 348.362 246.513 345.953 253C343.49 259.635 341.084 263.513 339.953 270.5C339.267 274.741 338.724 276.213 338.453 280.5C338.168 285.02 337.953 293 337.953 293L342.953 324.5L325.953 333.5L268.953 302.5L226.453 241L203.453 218C203.453 218 199.902 206.33 199.453 198C199.147 192.315 198.608 187.63 199.453 182C200.341 176.092 200.683 172.705 202.453 167C205.378 157.575 208.698 152.852 213.953 144.5C220.32 134.382 232.953 120.5 232.953 120.5C232.953 120.5 241.506 110.259 245.953 103C251.475 93.9876 254.907 88.758 257.453 78.5C259.298 71.0704 259.594 66.6539 259.453 59C259.334 52.5103 259.205 48.75 257.453 42.5Z" fill="url(#paint5_linear_5_8)"/>
<path d="M203.731 216C203.731 208 233.731 172 233.731 172C233.731 172 230.29 186.259 230.731 195.5C231.053 202.234 231.104 206.905 232.5 213.5C234 220.589 235.756 223.69 238.231 230.5C242.476 242.177 247.148 247.792 254.231 258C262.37 269.728 267.13 276.439 277.731 286C283.938 291.597 287.996 294.052 294.731 299C309.701 309.998 334.231 325.5 334.231 325.5L335.231 312.5L337.231 291.5C337.231 291.5 338.486 302.105 340.731 308.5C343.22 315.588 345.832 319.08 349.731 325.5C351.418 328.278 352.536 329.727 354.231 332.5C359.289 340.771 361.696 345.685 365.731 354.5C368.72 361.028 371.035 364.524 372.731 371.5C374.536 378.921 374.522 383.368 374.231 391C374.037 396.107 373.403 398.934 372.731 404C371.744 411.447 371.282 415.65 369.731 423C367.207 434.968 365.946 446.598 360.731 453C355.517 459.402 355.878 457.595 352.731 460.5C348.668 464.251 342.231 470 342.231 470C342.231 470 347.814 462.005 350.731 456.5C353.433 451.402 355.147 448.547 356.731 443C358.514 436.759 358.667 432.99 358.731 426.5C358.802 419.428 358.432 415.365 356.731 408.5C354.961 401.355 353.226 397.478 349.731 391C343.416 379.294 337.304 374.235 327.731 365C315.167 352.88 306.673 347.527 291.731 338.5C277.754 330.056 268.89 327.196 254.231 320C245.06 315.498 239.858 313.093 230.731 308.5C215.751 300.962 206.067 298.668 192.731 288.5C185.806 283.22 176.231 273.5 176.231 273.5C176.231 273.5 157.36 250.688 155.231 233C152.737 212.276 169.5 182.5 169.5 182.5C169.5 182.5 169.552 191.931 171 197C172 200.5 175.056 206.24 178 211.5C181.836 218.354 184.082 220.069 189.231 226C194.941 232.575 198.719 235.836 205.731 241C212.149 245.726 223.231 251.5 223.231 251.5C223.231 251.5 217.799 245.056 215 241C212.138 236.852 211.097 234.949 208.731 230.5C205.919 225.211 203.731 221.99 203.731 216Z" fill="url(#paint6_linear_5_8)"/>
<path d="M253.318 393.903C253.5 392 253.318 385 253.318 382.403C253.318 380.41 191.003 335.046 189.971 336.015C184.873 340.808 182.003 346.403 180.003 350.903C179.576 351.864 230.5 387.864 229.818 388.403C224 393 180.003 423.306 180.003 424.403C180.003 425.5 187.503 440.405 189.818 441.403C191.503 442.129 253.135 395.806 253.318 393.903Z" fill="url(#paint7_linear_5_8)" stroke="#0156F7" stroke-linecap="round"/>
<path d="M259.444 436.125C259.444 435.02 260.34 434.129 261.444 434.125C299 434 298 434.5 324.944 434.125C326.049 434.11 326.944 435.02 326.944 436.125V450.125C326.944 451.101 326 451.5 324.944 451.625C323.889 451.75 265.444 451.625 261.444 451.625C260.5 451.625 259.444 451.101 259.444 450.125V436.125Z" fill="url(#paint8_linear_5_8)" stroke="#0156F7" stroke-linecap="round"/>
<defs>
<linearGradient id="paint0_linear_5_8" x1="89" y1="303.5" x2="172.5" y2="474" gradientUnits="userSpaceOnUse">
<stop stop-color="#0768FD"/>
<stop offset="0.258531" stop-color="#0876FA"/>
<stop offset="0.600962" stop-color="#12A9FE"/>
<stop offset="1" stop-color="#38C9FC"/>
</linearGradient>
<linearGradient id="paint1_linear_5_8" x1="86" y1="302" x2="172.5" y2="476" gradientUnits="userSpaceOnUse">
<stop stop-color="#0662FA"/>
<stop offset="0.5" stop-color="#0B7CFC"/>
<stop offset="1" stop-color="#34CAFC"/>
</linearGradient>
<linearGradient id="paint2_linear_5_8" x1="372.437" y1="257" x2="372.437" y2="459" gradientUnits="userSpaceOnUse">
<stop stop-color="#085DFB"/>
<stop offset="1" stop-color="#1093FD"/>
</linearGradient>
<linearGradient id="paint3_linear_5_8" x1="155.145" y1="218" x2="155.145" y2="387" gradientUnits="userSpaceOnUse">
<stop stop-color="#056EFB"/>
<stop offset="1" stop-color="#19B5FE"/>
</linearGradient>
<linearGradient id="paint4_linear_5_8" x1="146.857" y1="152" x2="146.857" y2="387" gradientUnits="userSpaceOnUse">
<stop stop-color="#0452FD"/>
<stop offset="0.5" stop-color="#0359FB"/>
<stop offset="1" stop-color="#0AB1FD"/>
</linearGradient>
<linearGradient id="paint5_linear_5_8" x1="274.752" y1="25" x2="274.752" y2="333.5" gradientUnits="userSpaceOnUse">
<stop stop-color="#2A93FD"/>
<stop offset="1" stop-color="#086EFC"/>
</linearGradient>
<linearGradient id="paint6_linear_5_8" x1="177.809" y1="172" x2="351.568" y2="470" gradientUnits="userSpaceOnUse">
<stop stop-color="#17AEFB" stop-opacity="0.2"/>
<stop offset="0.148712" stop-color="#12AAFC"/>
<stop offset="0.574356" stop-color="#0E8EFC"/>
<stop offset="1" stop-color="#0CA6FC"/>
</linearGradient>
<linearGradient id="paint7_linear_5_8" x1="177" y1="384.5" x2="264.5" y2="384.5" gradientUnits="userSpaceOnUse">
<stop stop-color="#1067FA"/>
<stop offset="1" stop-color="#0257FD"/>
</linearGradient>
<linearGradient id="paint8_linear_5_8" x1="259.444" y1="442.875" x2="326.944" y2="442.875" gradientUnits="userSpaceOnUse">
<stop stop-color="#0B99FC"/>
<stop offset="1" stop-color="#0C55F3"/>
</linearGradient>
</defs>
</svg>
